<mxfile host="Electron" agent="Mozilla/5.0 (Windows NT 10.0; Win64; x64) AppleWebKit/537.36 (KHTML, like Gecko) draw.io/26.0.4 Chrome/128.0.6613.186 Electron/32.2.5 Safari/537.36" version="26.0.4">
  <diagram name="第 1 页" id="A2wYnKDMZFF023bxGnZ8">
    <mxGraphModel dx="607" dy="844" grid="1" gridSize="10" guides="1" tooltips="1" connect="1" arrows="1" fold="1" page="1" pageScale="1" pageWidth="827" pageHeight="1169" math="0" shadow="0">
      <root>
        <mxCell id="0" />
        <mxCell id="1" parent="0" />
        <mxCell id="lc5mf7nCTQjh2SExQ85K-13" value="" style="rounded=0;whiteSpace=wrap;html=1;" parent="1" vertex="1">
          <mxGeometry x="1150" y="20" width="940" height="390" as="geometry" />
        </mxCell>
        <mxCell id="1i7iyDztXm2SfSE6uJK3-1" value="«interface»&lt;br&gt;BeanNameGenerator" style="html=1;whiteSpace=wrap;fontSize=20;fontStyle=0;fillColor=#fff2cc;strokeColor=#d6b656;" parent="1" vertex="1">
          <mxGeometry x="1530" y="50" width="220" height="50" as="geometry" />
        </mxCell>
        <mxCell id="1i7iyDztXm2SfSE6uJK3-13" value="FullyQualifiedAnnotationBeanNameGenerator" style="html=1;whiteSpace=wrap;fontSize=20;verticalAlign=middle;align=center;fillColor=#ffe6cc;strokeColor=#d79b00;" parent="1" vertex="1">
          <mxGeometry x="1177.75" y="330" width="464.5" height="51" as="geometry" />
        </mxCell>
        <mxCell id="1i7iyDztXm2SfSE6uJK3-25" value="AnnotationBeanNameGenerator" style="html=1;whiteSpace=wrap;fontSize=20;fillColor=#ffe6cc;strokeColor=#d79b00;" parent="1" vertex="1">
          <mxGeometry x="1246.5" y="180" width="327" height="50" as="geometry" />
        </mxCell>
        <mxCell id="lc5mf7nCTQjh2SExQ85K-6" value="" style="endArrow=block;dashed=1;endFill=0;endSize=12;html=1;rounded=0;exitX=0.5;exitY=0;exitDx=0;exitDy=0;entryX=0.5;entryY=1;entryDx=0;entryDy=0;" parent="1" source="1i7iyDztXm2SfSE6uJK3-25" target="1i7iyDztXm2SfSE6uJK3-1" edge="1">
          <mxGeometry width="160" relative="1" as="geometry">
            <mxPoint x="1140" y="130" as="sourcePoint" />
            <mxPoint x="1300" y="130" as="targetPoint" />
          </mxGeometry>
        </mxCell>
        <mxCell id="lc5mf7nCTQjh2SExQ85K-7" value="Extends" style="endArrow=block;endSize=16;endFill=0;html=1;rounded=0;exitX=0.5;exitY=0;exitDx=0;exitDy=0;entryX=0.5;entryY=1;entryDx=0;entryDy=0;" parent="1" source="1i7iyDztXm2SfSE6uJK3-13" target="1i7iyDztXm2SfSE6uJK3-25" edge="1">
          <mxGeometry width="160" relative="1" as="geometry">
            <mxPoint x="1360" y="400" as="sourcePoint" />
            <mxPoint x="1520" y="400" as="targetPoint" />
          </mxGeometry>
        </mxCell>
        <mxCell id="lc5mf7nCTQjh2SExQ85K-15" value="spring-beans&lt;div&gt;&lt;br&gt;&lt;/div&gt;" style="shape=module;align=left;spacingLeft=20;align=center;verticalAlign=top;whiteSpace=wrap;html=1;fontSize=20;fillColor=#fff2cc;strokeColor=#d6b656;" parent="1" vertex="1">
          <mxGeometry x="1920" y="30" width="160" height="50" as="geometry" />
        </mxCell>
        <mxCell id="m49_XjVSQPwl2sKJceQv-1" value="DefaultBeanNameGenerator" style="html=1;whiteSpace=wrap;fontSize=20;fillColor=#fff2cc;strokeColor=#d6b656;" vertex="1" parent="1">
          <mxGeometry x="1670" y="180" width="327" height="50" as="geometry" />
        </mxCell>
        <mxCell id="m49_XjVSQPwl2sKJceQv-2" value="" style="endArrow=block;dashed=1;endFill=0;endSize=12;html=1;rounded=0;exitX=0.5;exitY=0;exitDx=0;exitDy=0;entryX=0.5;entryY=1;entryDx=0;entryDy=0;" edge="1" parent="1" source="m49_XjVSQPwl2sKJceQv-1" target="1i7iyDztXm2SfSE6uJK3-1">
          <mxGeometry width="160" relative="1" as="geometry">
            <mxPoint x="1900" y="100" as="sourcePoint" />
            <mxPoint x="2060" y="100" as="targetPoint" />
          </mxGeometry>
        </mxCell>
        <mxCell id="m49_XjVSQPwl2sKJceQv-5" value="spring-context" style="shape=module;align=left;spacingLeft=20;align=center;verticalAlign=top;whiteSpace=wrap;html=1;fontSize=20;fillColor=#ffe6cc;strokeColor=#d79b00;" vertex="1" parent="1">
          <mxGeometry x="1920" y="80" width="160" height="50" as="geometry" />
        </mxCell>
      </root>
    </mxGraphModel>
  </diagram>
</mxfile>
